<mxfile host="app.diagrams.net" agent="Mozilla/5.0 (Windows NT 10.0; Win64; x64) AppleWebKit/537.36 (KHTML, like Gecko) Chrome/136.0.0.0 Safari/537.36 Edg/136.0.0.0" version="27.0.6">
  <diagram name="Página-1" id="Kp0aNfJd4wAw7293PqE-">
    <mxGraphModel dx="1925" dy="644" grid="1" gridSize="10" guides="1" tooltips="1" connect="1" arrows="1" fold="1" page="1" pageScale="1" pageWidth="827" pageHeight="1169" math="0" shadow="0">
      <root>
        <mxCell id="0" />
        <mxCell id="1" parent="0" />
        <mxCell id="RBG55LGAEwvpJu7ITOGa-1" value="API Gateway" style="shape=umlFrame;whiteSpace=wrap;html=1;pointerEvents=0;width=100;height=30;" parent="1" vertex="1">
          <mxGeometry x="47.5" y="140" width="520" height="270" as="geometry" />
        </mxCell>
        <mxCell id="RBG55LGAEwvpJu7ITOGa-2" value="" style="ellipse;html=1;shape=startState;fillColor=#000000;strokeColor=#ff0000;" parent="1" vertex="1">
          <mxGeometry x="290" y="10" width="30" height="30" as="geometry" />
        </mxCell>
        <mxCell id="RBG55LGAEwvpJu7ITOGa-3" value="" style="edgeStyle=orthogonalEdgeStyle;html=1;verticalAlign=bottom;endArrow=open;endSize=8;strokeColor=#ff0000;rounded=0;" parent="1" source="RBG55LGAEwvpJu7ITOGa-2" edge="1">
          <mxGeometry relative="1" as="geometry">
            <mxPoint x="305" y="90" as="targetPoint" />
          </mxGeometry>
        </mxCell>
        <mxCell id="RBG55LGAEwvpJu7ITOGa-5" style="edgeStyle=orthogonalEdgeStyle;rounded=0;orthogonalLoop=1;jettySize=auto;html=1;exitX=0.5;exitY=1;exitDx=0;exitDy=0;" parent="1" source="RBG55LGAEwvpJu7ITOGa-4" edge="1">
          <mxGeometry relative="1" as="geometry">
            <mxPoint x="305" y="160" as="targetPoint" />
          </mxGeometry>
        </mxCell>
        <mxCell id="RBG55LGAEwvpJu7ITOGa-4" value="Revendedor inicia solicitud de compra" style="rounded=1;whiteSpace=wrap;html=1;" parent="1" vertex="1">
          <mxGeometry x="200" y="90" width="210" height="30" as="geometry" />
        </mxCell>
        <mxCell id="RBG55LGAEwvpJu7ITOGa-6" value="Verifica JWT con Auth Service" style="rounded=1;whiteSpace=wrap;html=1;" parent="1" vertex="1">
          <mxGeometry x="220" y="160" width="170" height="30" as="geometry" />
        </mxCell>
        <mxCell id="RBG55LGAEwvpJu7ITOGa-13" value="Purchase Service" style="shape=umlFrame;whiteSpace=wrap;html=1;pointerEvents=0;width=120;height=30;" parent="1" vertex="1">
          <mxGeometry x="145" y="450" width="320" height="90" as="geometry" />
        </mxCell>
        <mxCell id="igf7tKfwfQtUwG6J0Bws-12" value="" style="edgeStyle=orthogonalEdgeStyle;rounded=0;orthogonalLoop=1;jettySize=auto;html=1;" edge="1" parent="1" source="RBG55LGAEwvpJu7ITOGa-27" target="RBG55LGAEwvpJu7ITOGa-43">
          <mxGeometry relative="1" as="geometry" />
        </mxCell>
        <mxCell id="RBG55LGAEwvpJu7ITOGa-27" value="Solicita disponibilidad a Catalog" style="rounded=1;whiteSpace=wrap;html=1;" parent="1" vertex="1">
          <mxGeometry x="220" y="490" width="190" height="30" as="geometry" />
        </mxCell>
        <mxCell id="RBG55LGAEwvpJu7ITOGa-42" value="Catalog Service" style="shape=umlFrame;whiteSpace=wrap;html=1;pointerEvents=0;width=110;height=30;" parent="1" vertex="1">
          <mxGeometry x="80" y="600" width="480" height="290" as="geometry" />
        </mxCell>
        <mxCell id="RBG55LGAEwvpJu7ITOGa-43" value="Consulta en Redis cache" style="rounded=1;whiteSpace=wrap;html=1;" parent="1" vertex="1">
          <mxGeometry x="238.75" y="632" width="152.5" height="30" as="geometry" />
        </mxCell>
        <mxCell id="RBG55LGAEwvpJu7ITOGa-44" value="¿Tiquete disponible?" style="shape=hexagon;perimeter=hexagonPerimeter2;whiteSpace=wrap;html=1;fixedSize=1;" parent="1" vertex="1">
          <mxGeometry x="255" y="692" width="120" height="30" as="geometry" />
        </mxCell>
        <mxCell id="RBG55LGAEwvpJu7ITOGa-45" value="Rechaza compra" style="rounded=1;whiteSpace=wrap;html=1;" parent="1" vertex="1">
          <mxGeometry x="380.94" y="752" width="148.13" height="30" as="geometry" />
        </mxCell>
        <mxCell id="igf7tKfwfQtUwG6J0Bws-19" style="edgeStyle=orthogonalEdgeStyle;rounded=0;orthogonalLoop=1;jettySize=auto;html=1;entryX=0.5;entryY=0;entryDx=0;entryDy=0;" edge="1" parent="1" source="RBG55LGAEwvpJu7ITOGa-47" target="igf7tKfwfQtUwG6J0Bws-16">
          <mxGeometry relative="1" as="geometry" />
        </mxCell>
        <mxCell id="RBG55LGAEwvpJu7ITOGa-47" value="Responde disponibilidad" style="rounded=1;whiteSpace=wrap;html=1;" parent="1" vertex="1">
          <mxGeometry x="110" y="752" width="140" height="30" as="geometry" />
        </mxCell>
        <mxCell id="RBG55LGAEwvpJu7ITOGa-51" value="" style="endArrow=classic;html=1;rounded=0;exitX=0.5;exitY=1;exitDx=0;exitDy=0;entryX=0.5;entryY=0;entryDx=0;entryDy=0;" parent="1" source="RBG55LGAEwvpJu7ITOGa-43" target="RBG55LGAEwvpJu7ITOGa-44" edge="1">
          <mxGeometry width="50" height="50" relative="1" as="geometry">
            <mxPoint x="75" y="862" as="sourcePoint" />
            <mxPoint x="125" y="812" as="targetPoint" />
          </mxGeometry>
        </mxCell>
        <mxCell id="RBG55LGAEwvpJu7ITOGa-52" value="" style="endArrow=classic;html=1;rounded=0;exitX=1;exitY=0.5;exitDx=0;exitDy=0;" parent="1" source="RBG55LGAEwvpJu7ITOGa-44" edge="1">
          <mxGeometry width="50" height="50" relative="1" as="geometry">
            <mxPoint x="425" y="722" as="sourcePoint" />
            <mxPoint x="455" y="752" as="targetPoint" />
            <Array as="points">
              <mxPoint x="455" y="707" />
            </Array>
          </mxGeometry>
        </mxCell>
        <mxCell id="RBG55LGAEwvpJu7ITOGa-53" value="No" style="text;html=1;align=center;verticalAlign=middle;resizable=0;points=[];autosize=1;strokeColor=none;fillColor=none;" parent="1" vertex="1">
          <mxGeometry x="395" y="680" width="40" height="30" as="geometry" />
        </mxCell>
        <mxCell id="RBG55LGAEwvpJu7ITOGa-54" value="" style="endArrow=classic;html=1;rounded=0;exitX=0;exitY=0.5;exitDx=0;exitDy=0;" parent="1" source="RBG55LGAEwvpJu7ITOGa-44" edge="1">
          <mxGeometry width="50" height="50" relative="1" as="geometry">
            <mxPoint x="145" y="752" as="sourcePoint" />
            <mxPoint x="175" y="752" as="targetPoint" />
            <Array as="points">
              <mxPoint x="175" y="707" />
            </Array>
          </mxGeometry>
        </mxCell>
        <mxCell id="RBG55LGAEwvpJu7ITOGa-55" value="Si" style="text;html=1;align=center;verticalAlign=middle;resizable=0;points=[];autosize=1;strokeColor=none;fillColor=none;" parent="1" vertex="1">
          <mxGeometry x="190" y="680" width="30" height="30" as="geometry" />
        </mxCell>
        <mxCell id="RBG55LGAEwvpJu7ITOGa-62" value="" style="ellipse;html=1;shape=endState;fillColor=#000000;strokeColor=#ff0000;" parent="1" vertex="1">
          <mxGeometry x="280.07" y="2170" width="30" height="30" as="geometry" />
        </mxCell>
        <mxCell id="igf7tKfwfQtUwG6J0Bws-3" value="" style="edgeStyle=orthogonalEdgeStyle;rounded=0;orthogonalLoop=1;jettySize=auto;html=1;" edge="1" parent="1" source="igf7tKfwfQtUwG6J0Bws-1" target="igf7tKfwfQtUwG6J0Bws-2">
          <mxGeometry relative="1" as="geometry" />
        </mxCell>
        <mxCell id="igf7tKfwfQtUwG6J0Bws-5" value="" style="edgeStyle=orthogonalEdgeStyle;rounded=0;orthogonalLoop=1;jettySize=auto;html=1;exitX=0;exitY=0.5;exitDx=0;exitDy=0;" edge="1" parent="1" source="igf7tKfwfQtUwG6J0Bws-1" target="igf7tKfwfQtUwG6J0Bws-4">
          <mxGeometry relative="1" as="geometry">
            <Array as="points">
              <mxPoint x="175" y="225" />
            </Array>
          </mxGeometry>
        </mxCell>
        <mxCell id="igf7tKfwfQtUwG6J0Bws-1" value="¿JWT válido?" style="shape=hexagon;perimeter=hexagonPerimeter2;whiteSpace=wrap;html=1;fixedSize=1;" vertex="1" parent="1">
          <mxGeometry x="228.13" y="210" width="153.75" height="30" as="geometry" />
        </mxCell>
        <mxCell id="igf7tKfwfQtUwG6J0Bws-2" value="Rechaza solicitud" style="rounded=1;whiteSpace=wrap;html=1;" vertex="1" parent="1">
          <mxGeometry x="415" y="280" width="120" height="35" as="geometry" />
        </mxCell>
        <mxCell id="igf7tKfwfQtUwG6J0Bws-11" style="edgeStyle=orthogonalEdgeStyle;rounded=0;orthogonalLoop=1;jettySize=auto;html=1;exitX=0.5;exitY=1;exitDx=0;exitDy=0;entryX=0.5;entryY=0;entryDx=0;entryDy=0;" edge="1" parent="1" source="igf7tKfwfQtUwG6J0Bws-4" target="RBG55LGAEwvpJu7ITOGa-27">
          <mxGeometry relative="1" as="geometry" />
        </mxCell>
        <mxCell id="igf7tKfwfQtUwG6J0Bws-4" value="Reenvía solicitu a Purchase Service" style="rounded=1;whiteSpace=wrap;html=1;" vertex="1" parent="1">
          <mxGeometry x="66.99" y="280" width="210.01" height="42.5" as="geometry" />
        </mxCell>
        <mxCell id="igf7tKfwfQtUwG6J0Bws-7" value="si" style="text;html=1;align=center;verticalAlign=middle;resizable=0;points=[];autosize=1;strokeColor=none;fillColor=none;" vertex="1" parent="1">
          <mxGeometry x="165" y="188" width="30" height="30" as="geometry" />
        </mxCell>
        <mxCell id="igf7tKfwfQtUwG6J0Bws-8" value="no" style="text;html=1;align=center;verticalAlign=middle;resizable=0;points=[];autosize=1;strokeColor=none;fillColor=none;" vertex="1" parent="1">
          <mxGeometry x="400" y="198" width="40" height="30" as="geometry" />
        </mxCell>
        <mxCell id="igf7tKfwfQtUwG6J0Bws-9" value="" style="ellipse;html=1;shape=endState;fillColor=#000000;strokeColor=#ff0000;" vertex="1" parent="1">
          <mxGeometry x="459" y="355" width="30" height="30" as="geometry" />
        </mxCell>
        <mxCell id="igf7tKfwfQtUwG6J0Bws-10" value="" style="endArrow=classic;html=1;rounded=0;exitX=0.5;exitY=1;exitDx=0;exitDy=0;entryX=0.5;entryY=0;entryDx=0;entryDy=0;" edge="1" parent="1" target="igf7tKfwfQtUwG6J0Bws-9">
          <mxGeometry width="50" height="50" relative="1" as="geometry">
            <mxPoint x="474" y="315" as="sourcePoint" />
            <mxPoint x="285" y="335" as="targetPoint" />
          </mxGeometry>
        </mxCell>
        <mxCell id="igf7tKfwfQtUwG6J0Bws-13" value="" style="ellipse;html=1;shape=endState;fillColor=#000000;strokeColor=#ff0000;" vertex="1" parent="1">
          <mxGeometry x="440" y="822" width="30" height="30" as="geometry" />
        </mxCell>
        <mxCell id="igf7tKfwfQtUwG6J0Bws-14" value="" style="endArrow=classic;html=1;rounded=0;exitX=0.5;exitY=1;exitDx=0;exitDy=0;entryX=0.5;entryY=0;entryDx=0;entryDy=0;" edge="1" parent="1" target="igf7tKfwfQtUwG6J0Bws-13">
          <mxGeometry width="50" height="50" relative="1" as="geometry">
            <mxPoint x="455" y="782" as="sourcePoint" />
            <mxPoint x="266" y="802" as="targetPoint" />
          </mxGeometry>
        </mxCell>
        <mxCell id="igf7tKfwfQtUwG6J0Bws-15" value="Purchase Service" style="shape=umlFrame;whiteSpace=wrap;html=1;pointerEvents=0;width=170;height=30;" vertex="1" parent="1">
          <mxGeometry x="80" y="920" width="480" height="290" as="geometry" />
        </mxCell>
        <mxCell id="igf7tKfwfQtUwG6J0Bws-20" style="edgeStyle=orthogonalEdgeStyle;rounded=0;orthogonalLoop=1;jettySize=auto;html=1;entryX=0.5;entryY=0;entryDx=0;entryDy=0;" edge="1" parent="1" source="igf7tKfwfQtUwG6J0Bws-16" target="igf7tKfwfQtUwG6J0Bws-17">
          <mxGeometry relative="1" as="geometry" />
        </mxCell>
        <mxCell id="igf7tKfwfQtUwG6J0Bws-16" value="Bloquea temporalmente el stock" style="rounded=1;whiteSpace=wrap;html=1;" vertex="1" parent="1">
          <mxGeometry x="228.13" y="960" width="195" height="40" as="geometry" />
        </mxCell>
        <mxCell id="igf7tKfwfQtUwG6J0Bws-21" value="" style="edgeStyle=orthogonalEdgeStyle;rounded=0;orthogonalLoop=1;jettySize=auto;html=1;" edge="1" parent="1" source="igf7tKfwfQtUwG6J0Bws-17" target="igf7tKfwfQtUwG6J0Bws-18">
          <mxGeometry relative="1" as="geometry" />
        </mxCell>
        <mxCell id="igf7tKfwfQtUwG6J0Bws-17" value="Emite evento &quot;CompraIniciada&quot; a AWS SNS/SQS" style="rounded=1;whiteSpace=wrap;html=1;" vertex="1" parent="1">
          <mxGeometry x="190.13" y="1040" width="271.87" height="40" as="geometry" />
        </mxCell>
        <mxCell id="igf7tKfwfQtUwG6J0Bws-34" style="edgeStyle=orthogonalEdgeStyle;rounded=0;orthogonalLoop=1;jettySize=auto;html=1;" edge="1" parent="1" source="igf7tKfwfQtUwG6J0Bws-18" target="igf7tKfwfQtUwG6J0Bws-23">
          <mxGeometry relative="1" as="geometry" />
        </mxCell>
        <mxCell id="igf7tKfwfQtUwG6J0Bws-18" value="Solicita pago al Payment Service" style="rounded=1;whiteSpace=wrap;html=1;" vertex="1" parent="1">
          <mxGeometry x="223.13" y="1120" width="205" height="40" as="geometry" />
        </mxCell>
        <mxCell id="igf7tKfwfQtUwG6J0Bws-22" value="Payment Service" style="shape=umlFrame;whiteSpace=wrap;html=1;pointerEvents=0;width=110;height=30;" vertex="1" parent="1">
          <mxGeometry x="90" y="1250" width="480" height="290" as="geometry" />
        </mxCell>
        <mxCell id="igf7tKfwfQtUwG6J0Bws-23" value="Procesa pago con PSP" style="rounded=1;whiteSpace=wrap;html=1;" vertex="1" parent="1">
          <mxGeometry x="248.75" y="1282" width="152.5" height="30" as="geometry" />
        </mxCell>
        <mxCell id="igf7tKfwfQtUwG6J0Bws-24" value="¿Pago exitoso?" style="shape=hexagon;perimeter=hexagonPerimeter2;whiteSpace=wrap;html=1;fixedSize=1;" vertex="1" parent="1">
          <mxGeometry x="265" y="1342" width="120" height="30" as="geometry" />
        </mxCell>
        <mxCell id="igf7tKfwfQtUwG6J0Bws-25" value="Desbloquea stock" style="rounded=1;whiteSpace=wrap;html=1;" vertex="1" parent="1">
          <mxGeometry x="390.94000000000005" y="1402" width="148.13" height="30" as="geometry" />
        </mxCell>
        <mxCell id="igf7tKfwfQtUwG6J0Bws-41" style="edgeStyle=orthogonalEdgeStyle;rounded=0;orthogonalLoop=1;jettySize=auto;html=1;entryX=0.5;entryY=0;entryDx=0;entryDy=0;exitX=0.5;exitY=1;exitDx=0;exitDy=0;" edge="1" parent="1" source="igf7tKfwfQtUwG6J0Bws-26" target="igf7tKfwfQtUwG6J0Bws-37">
          <mxGeometry relative="1" as="geometry" />
        </mxCell>
        <mxCell id="igf7tKfwfQtUwG6J0Bws-26" value="Responde a Purchase" style="rounded=1;whiteSpace=wrap;html=1;" vertex="1" parent="1">
          <mxGeometry x="120" y="1402" width="140" height="30" as="geometry" />
        </mxCell>
        <mxCell id="igf7tKfwfQtUwG6J0Bws-27" value="" style="endArrow=classic;html=1;rounded=0;exitX=0.5;exitY=1;exitDx=0;exitDy=0;entryX=0.5;entryY=0;entryDx=0;entryDy=0;" edge="1" parent="1" source="igf7tKfwfQtUwG6J0Bws-23" target="igf7tKfwfQtUwG6J0Bws-24">
          <mxGeometry width="50" height="50" relative="1" as="geometry">
            <mxPoint x="85" y="1512" as="sourcePoint" />
            <mxPoint x="135" y="1462" as="targetPoint" />
          </mxGeometry>
        </mxCell>
        <mxCell id="igf7tKfwfQtUwG6J0Bws-28" value="" style="endArrow=classic;html=1;rounded=0;exitX=1;exitY=0.5;exitDx=0;exitDy=0;" edge="1" parent="1" source="igf7tKfwfQtUwG6J0Bws-24">
          <mxGeometry width="50" height="50" relative="1" as="geometry">
            <mxPoint x="435" y="1372" as="sourcePoint" />
            <mxPoint x="465" y="1402" as="targetPoint" />
            <Array as="points">
              <mxPoint x="465" y="1357" />
            </Array>
          </mxGeometry>
        </mxCell>
        <mxCell id="igf7tKfwfQtUwG6J0Bws-29" value="No" style="text;html=1;align=center;verticalAlign=middle;resizable=0;points=[];autosize=1;strokeColor=none;fillColor=none;" vertex="1" parent="1">
          <mxGeometry x="405" y="1330" width="40" height="30" as="geometry" />
        </mxCell>
        <mxCell id="igf7tKfwfQtUwG6J0Bws-30" value="" style="endArrow=classic;html=1;rounded=0;exitX=0;exitY=0.5;exitDx=0;exitDy=0;" edge="1" parent="1" source="igf7tKfwfQtUwG6J0Bws-24">
          <mxGeometry width="50" height="50" relative="1" as="geometry">
            <mxPoint x="155" y="1402" as="sourcePoint" />
            <mxPoint x="185" y="1402" as="targetPoint" />
            <Array as="points">
              <mxPoint x="185" y="1357" />
            </Array>
          </mxGeometry>
        </mxCell>
        <mxCell id="igf7tKfwfQtUwG6J0Bws-31" value="Si" style="text;html=1;align=center;verticalAlign=middle;resizable=0;points=[];autosize=1;strokeColor=none;fillColor=none;" vertex="1" parent="1">
          <mxGeometry x="200" y="1330" width="30" height="30" as="geometry" />
        </mxCell>
        <mxCell id="igf7tKfwfQtUwG6J0Bws-32" value="" style="ellipse;html=1;shape=endState;fillColor=#000000;strokeColor=#ff0000;" vertex="1" parent="1">
          <mxGeometry x="450" y="1472" width="30" height="30" as="geometry" />
        </mxCell>
        <mxCell id="igf7tKfwfQtUwG6J0Bws-33" value="" style="endArrow=classic;html=1;rounded=0;exitX=0.5;exitY=1;exitDx=0;exitDy=0;entryX=0.5;entryY=0;entryDx=0;entryDy=0;" edge="1" parent="1" target="igf7tKfwfQtUwG6J0Bws-32">
          <mxGeometry width="50" height="50" relative="1" as="geometry">
            <mxPoint x="465" y="1432" as="sourcePoint" />
            <mxPoint x="276" y="1452" as="targetPoint" />
          </mxGeometry>
        </mxCell>
        <mxCell id="igf7tKfwfQtUwG6J0Bws-35" value="Purchase Service" style="shape=umlFrame;whiteSpace=wrap;html=1;pointerEvents=0;width=170;height=30;" vertex="1" parent="1">
          <mxGeometry x="87.5" y="1590" width="482.5" height="200" as="geometry" />
        </mxCell>
        <mxCell id="igf7tKfwfQtUwG6J0Bws-42" style="edgeStyle=orthogonalEdgeStyle;rounded=0;orthogonalLoop=1;jettySize=auto;html=1;entryX=0.5;entryY=0;entryDx=0;entryDy=0;" edge="1" parent="1" source="igf7tKfwfQtUwG6J0Bws-37" target="igf7tKfwfQtUwG6J0Bws-39">
          <mxGeometry relative="1" as="geometry" />
        </mxCell>
        <mxCell id="igf7tKfwfQtUwG6J0Bws-37" value="Confirma compra" style="rounded=1;whiteSpace=wrap;html=1;" vertex="1" parent="1">
          <mxGeometry x="267.81" y="1630" width="124.37" height="40" as="geometry" />
        </mxCell>
        <mxCell id="igf7tKfwfQtUwG6J0Bws-52" style="edgeStyle=orthogonalEdgeStyle;rounded=0;orthogonalLoop=1;jettySize=auto;html=1;" edge="1" parent="1" source="igf7tKfwfQtUwG6J0Bws-39">
          <mxGeometry relative="1" as="geometry">
            <mxPoint x="330.81500000000005" y="1890" as="targetPoint" />
          </mxGeometry>
        </mxCell>
        <mxCell id="igf7tKfwfQtUwG6J0Bws-39" value="Emite evento &quot;CompraCompletada&quot; a AWS SNS/SQS" style="rounded=1;whiteSpace=wrap;html=1;" vertex="1" parent="1">
          <mxGeometry x="184.63" y="1713.5" width="292.37" height="40" as="geometry" />
        </mxCell>
        <mxCell id="igf7tKfwfQtUwG6J0Bws-43" value="SNS/SQS&amp;nbsp; Servicios Reactivos" style="shape=umlFrame;whiteSpace=wrap;html=1;pointerEvents=0;width=210;height=30;" vertex="1" parent="1">
          <mxGeometry x="-230" y="1840" width="1000" height="200" as="geometry" />
        </mxCell>
        <mxCell id="igf7tKfwfQtUwG6J0Bws-56" style="edgeStyle=orthogonalEdgeStyle;rounded=0;orthogonalLoop=1;jettySize=auto;html=1;" edge="1" parent="1" source="igf7tKfwfQtUwG6J0Bws-45">
          <mxGeometry relative="1" as="geometry">
            <mxPoint x="-95" y="2000" as="targetPoint" />
          </mxGeometry>
        </mxCell>
        <mxCell id="igf7tKfwfQtUwG6J0Bws-45" value="Notification Service notifica al usuario" style="rounded=1;whiteSpace=wrap;html=1;" vertex="1" parent="1">
          <mxGeometry x="-200" y="1920" width="210" height="40" as="geometry" />
        </mxCell>
        <mxCell id="igf7tKfwfQtUwG6J0Bws-48" value="" style="endArrow=none;html=1;rounded=0;strokeWidth=5;" edge="1" parent="1">
          <mxGeometry relative="1" as="geometry">
            <mxPoint x="-205" y="1890" as="sourcePoint" />
            <mxPoint x="745" y="1890" as="targetPoint" />
          </mxGeometry>
        </mxCell>
        <mxCell id="igf7tKfwfQtUwG6J0Bws-49" value="" style="endArrow=none;html=1;rounded=0;strokeWidth=5;" edge="1" parent="1">
          <mxGeometry relative="1" as="geometry">
            <mxPoint x="-205" y="2000" as="sourcePoint" />
            <mxPoint x="745" y="2000" as="targetPoint" />
          </mxGeometry>
        </mxCell>
        <mxCell id="igf7tKfwfQtUwG6J0Bws-57" style="edgeStyle=orthogonalEdgeStyle;rounded=0;orthogonalLoop=1;jettySize=auto;html=1;" edge="1" parent="1" source="igf7tKfwfQtUwG6J0Bws-50">
          <mxGeometry relative="1" as="geometry">
            <mxPoint x="264.375" y="2000" as="targetPoint" />
          </mxGeometry>
        </mxCell>
        <mxCell id="igf7tKfwfQtUwG6J0Bws-50" value="Commission Service calcula y asigna comisión&amp;nbsp;" style="rounded=1;whiteSpace=wrap;html=1;" vertex="1" parent="1">
          <mxGeometry x="133.75" y="1920" width="261.25" height="40" as="geometry" />
        </mxCell>
        <mxCell id="igf7tKfwfQtUwG6J0Bws-58" style="edgeStyle=orthogonalEdgeStyle;rounded=0;orthogonalLoop=1;jettySize=auto;html=1;" edge="1" parent="1" source="igf7tKfwfQtUwG6J0Bws-51">
          <mxGeometry relative="1" as="geometry">
            <mxPoint x="614" y="2000" as="targetPoint" />
          </mxGeometry>
        </mxCell>
        <mxCell id="igf7tKfwfQtUwG6J0Bws-51" value="Catalog Service actualiza el estado del tiquete" style="rounded=1;whiteSpace=wrap;html=1;" vertex="1" parent="1">
          <mxGeometry x="489" y="1920" width="250" height="40" as="geometry" />
        </mxCell>
        <mxCell id="igf7tKfwfQtUwG6J0Bws-53" value="" style="endArrow=classic;html=1;rounded=0;entryX=0.25;entryY=0;entryDx=0;entryDy=0;" edge="1" parent="1" target="igf7tKfwfQtUwG6J0Bws-45">
          <mxGeometry width="50" height="50" relative="1" as="geometry">
            <mxPoint x="-130" y="1890" as="sourcePoint" />
            <mxPoint x="-90" y="1710" as="targetPoint" />
          </mxGeometry>
        </mxCell>
        <mxCell id="igf7tKfwfQtUwG6J0Bws-54" value="" style="endArrow=classic;html=1;rounded=0;entryX=0.25;entryY=0;entryDx=0;entryDy=0;" edge="1" parent="1">
          <mxGeometry width="50" height="50" relative="1" as="geometry">
            <mxPoint x="260" y="1890" as="sourcePoint" />
            <mxPoint x="243" y="1920" as="targetPoint" />
          </mxGeometry>
        </mxCell>
        <mxCell id="igf7tKfwfQtUwG6J0Bws-55" value="" style="endArrow=classic;html=1;rounded=0;entryX=0.25;entryY=0;entryDx=0;entryDy=0;" edge="1" parent="1">
          <mxGeometry width="50" height="50" relative="1" as="geometry">
            <mxPoint x="577" y="1890" as="sourcePoint" />
            <mxPoint x="560" y="1920" as="targetPoint" />
          </mxGeometry>
        </mxCell>
        <mxCell id="igf7tKfwfQtUwG6J0Bws-59" value="Notificación de éxito al revendedor" style="rounded=1;whiteSpace=wrap;html=1;" vertex="1" parent="1">
          <mxGeometry x="190.13" y="2080" width="209.87" height="40" as="geometry" />
        </mxCell>
        <mxCell id="igf7tKfwfQtUwG6J0Bws-60" value="" style="endArrow=classic;html=1;rounded=0;entryX=0.5;entryY=0;entryDx=0;entryDy=0;" edge="1" parent="1" target="igf7tKfwfQtUwG6J0Bws-59">
          <mxGeometry width="50" height="50" relative="1" as="geometry">
            <mxPoint x="295" y="2000" as="sourcePoint" />
            <mxPoint x="80" y="2170" as="targetPoint" />
          </mxGeometry>
        </mxCell>
        <mxCell id="igf7tKfwfQtUwG6J0Bws-61" value="" style="endArrow=classic;html=1;rounded=0;exitX=0.5;exitY=1;exitDx=0;exitDy=0;entryX=0.5;entryY=0;entryDx=0;entryDy=0;" edge="1" parent="1" source="igf7tKfwfQtUwG6J0Bws-59" target="RBG55LGAEwvpJu7ITOGa-62">
          <mxGeometry width="50" height="50" relative="1" as="geometry">
            <mxPoint x="440" y="2170" as="sourcePoint" />
            <mxPoint x="490" y="2120" as="targetPoint" />
          </mxGeometry>
        </mxCell>
      </root>
    </mxGraphModel>
  </diagram>
</mxfile>
